<svg width="461" height="91" viewBox="0 0 461 91" fill="none" xmlns="http://www.w3.org/2000/svg">
<path fill-rule="evenodd" clip-rule="evenodd" d="M362.5 41C360.567 41 359 42.567 359 44.5V61.5C359 63.433 360.567 65 362.5 65C364.433 65 366 63.433 366 61.5V44.5C366 42.567 364.433 41 362.5 41ZM349.419 45C346.831 47.9493 345.069 51.7068 344.355 55.7976C343.642 59.8883 344.008 64.1284 345.408 67.9818C346.808 71.8352 349.18 75.1288 352.222 77.446C355.264 79.7632 358.841 81 362.5 81C366.159 81 369.736 79.7632 372.778 77.446C375.82 75.1288 378.192 71.8352 379.592 67.9818C380.992 64.1285 381.358 59.8883 380.645 55.7976C379.931 51.7068 378.169 47.9493 375.581 45L369.148 52.3335C370.307 54.299 371 56.79 371 59.5C371 65.8513 367.194 71 362.5 71C357.806 71 354 65.8513 354 59.5C354 56.79 354.693 54.299 355.852 52.3335L349.419 45Z" fill="#7EB6A1"/>
<path d="M49.343 47.9141H38.4553C38.2564 46.5054 37.8504 45.2543 37.2372 44.1605C36.6241 43.0502 35.8369 42.1056 34.8757 41.3267C33.9145 40.5478 32.8042 39.9512 31.5447 39.5369C30.3018 39.1226 28.9512 38.9155 27.4929 38.9155C24.858 38.9155 22.5627 39.5701 20.6072 40.8793C18.6518 42.1719 17.1354 44.0611 16.0582 46.5469C14.9811 49.0161 14.4425 52.0156 14.4425 55.5455C14.4425 59.1747 14.9811 62.224 16.0582 64.6932C17.152 67.1624 18.6766 69.0268 20.6321 70.2862C22.5876 71.5457 24.8497 72.1754 27.4183 72.1754C28.8601 72.1754 30.1941 71.9848 31.4205 71.6037C32.6634 71.2225 33.7654 70.6674 34.7266 69.9382C35.6877 69.1925 36.4832 68.2893 37.1129 67.2287C37.7592 66.1681 38.2067 64.9583 38.4553 63.5994L49.343 63.6491C49.0613 65.9858 48.357 68.2396 47.2301 70.4105C46.1198 72.5649 44.62 74.4955 42.7308 76.2024C40.8582 77.8928 38.621 79.2351 36.0192 80.2294C33.4339 81.2071 30.509 81.696 27.2443 81.696C22.7036 81.696 18.6435 80.6686 15.0639 78.6136C11.5009 76.5587 8.68371 73.584 6.61222 69.6896C4.55729 65.7952 3.52983 61.0805 3.52983 55.5455C3.52983 49.9938 4.57386 45.2708 6.66193 41.3764C8.75 37.482 11.5838 34.5156 15.1634 32.4773C18.7429 30.4223 22.7699 29.3949 27.2443 29.3949C30.1941 29.3949 32.9285 29.8092 35.4474 30.6378C37.983 31.4664 40.2285 32.6761 42.184 34.267C44.1394 35.8414 45.7304 37.772 46.9567 40.0589C48.1996 42.3459 48.995 44.9643 49.343 47.9141ZM74.114 81.7457C70.2527 81.7457 66.9135 80.9254 64.0962 79.2848C61.2956 77.6276 59.1329 75.3241 57.6083 72.3743C56.0837 69.4079 55.3214 65.9692 55.3214 62.0582C55.3214 58.1141 56.0837 54.6671 57.6083 51.7173C59.1329 48.7509 61.2956 46.4474 64.0962 44.8068C66.9135 43.1496 70.2527 42.321 74.114 42.321C77.9753 42.321 81.3062 43.1496 84.1069 44.8068C86.9241 46.4474 89.0951 48.7509 90.6197 51.7173C92.1443 54.6671 92.9066 58.1141 92.9066 62.0582C92.9066 65.9692 92.1443 69.4079 90.6197 72.3743C89.0951 75.3241 86.9241 77.6276 84.1069 79.2848C81.3062 80.9254 77.9753 81.7457 74.114 81.7457ZM74.1637 73.5426C75.9203 73.5426 77.387 73.0455 78.5636 72.0511C79.7402 71.0402 80.6268 69.6648 81.2234 67.9247C81.8365 66.1847 82.1431 64.2043 82.1431 61.9837C82.1431 59.763 81.8365 57.7827 81.2234 56.0426C80.6268 54.3026 79.7402 52.9271 78.5636 51.9162C77.387 50.9053 75.9203 50.3999 74.1637 50.3999C72.3905 50.3999 70.899 50.9053 69.6893 51.9162C68.4961 52.9271 67.5929 54.3026 66.9798 56.0426C66.3832 57.7827 66.0849 59.763 66.0849 61.9837C66.0849 64.2043 66.3832 66.1847 66.9798 67.9247C67.5929 69.6648 68.4961 71.0402 69.6893 72.0511C70.899 73.0455 72.3905 73.5426 74.1637 73.5426ZM110.382 58.9261V81H99.7923V42.8182H109.885V49.5547H110.332C111.177 47.334 112.594 45.5774 114.583 44.2848C116.571 42.9756 118.983 42.321 121.816 42.321C124.468 42.321 126.78 42.901 128.752 44.0611C130.724 45.2211 132.257 46.8783 133.35 49.0327C134.444 51.1705 134.991 53.7225 134.991 56.6889V81H124.402V58.5781C124.418 56.2415 123.822 54.4186 122.612 53.1094C121.402 51.7836 119.737 51.1207 117.615 51.1207C116.19 51.1207 114.931 51.4273 113.837 52.0405C112.76 52.6536 111.915 53.5485 111.301 54.7251C110.705 55.8852 110.398 57.2855 110.382 58.9261ZM153.927 58.9261V81H143.337V42.8182H153.43V49.5547H153.877C154.722 47.334 156.139 45.5774 158.128 44.2848C160.116 42.9756 162.528 42.321 165.361 42.321C168.013 42.321 170.325 42.901 172.297 44.0611C174.269 45.2211 175.802 46.8783 176.895 49.0327C177.989 51.1705 178.536 53.7225 178.536 56.6889V81H167.947V58.5781C167.963 56.2415 167.367 54.4186 166.157 53.1094C164.947 51.7836 163.282 51.1207 161.16 51.1207C159.735 51.1207 158.476 51.4273 157.382 52.0405C156.305 52.6536 155.46 53.5485 154.846 54.7251C154.25 55.8852 153.943 57.2855 153.927 58.9261ZM204.283 81.7457C200.355 81.7457 196.974 80.9503 194.141 79.3594C191.323 77.7519 189.152 75.4815 187.628 72.5483C186.103 69.5985 185.341 66.1101 185.341 62.0831C185.341 58.1555 186.103 54.7086 187.628 51.7422C189.152 48.7758 191.299 46.464 194.066 44.8068C196.85 43.1496 200.115 42.321 203.86 42.321C206.379 42.321 208.724 42.727 210.895 43.5391C213.082 44.3345 214.988 45.536 216.612 47.1435C218.253 48.7509 219.529 50.7727 220.44 53.2088C221.352 55.6283 221.808 58.4621 221.808 61.7102V64.6186H189.567V58.0561H211.839C211.839 56.5315 211.508 55.1809 210.845 54.0043C210.182 52.8277 209.263 51.9079 208.086 51.245C206.926 50.5656 205.575 50.2259 204.034 50.2259C202.427 50.2259 201.001 50.5987 199.759 51.3445C198.532 52.0736 197.571 53.0597 196.875 54.3026C196.179 55.5289 195.823 56.8961 195.806 58.4041V64.6435C195.806 66.5327 196.154 68.165 196.85 69.5405C197.563 70.916 198.565 71.9766 199.858 72.7223C201.151 73.468 202.683 73.8409 204.457 73.8409C205.633 73.8409 206.71 73.6752 207.688 73.3438C208.666 73.0123 209.503 72.5152 210.199 71.8523C210.895 71.1894 211.425 70.3774 211.79 69.4162L221.584 70.0625C221.087 72.4157 220.067 74.4706 218.526 76.2273C217.002 77.9673 215.03 79.3262 212.61 80.304C210.207 81.2652 207.431 81.7457 204.283 81.7457ZM245.969 81.7457C242.058 81.7457 238.694 80.9171 235.877 79.2599C233.076 77.5862 230.922 75.2661 229.414 72.2997C227.923 69.3333 227.177 65.9195 227.177 62.0582C227.177 58.1473 227.931 54.7169 229.439 51.767C230.964 48.8007 233.126 46.4889 235.927 44.8317C238.728 43.1579 242.058 42.321 245.92 42.321C249.251 42.321 252.167 42.9259 254.67 44.1357C257.172 45.3454 259.152 47.044 260.611 49.2315C262.069 51.419 262.873 53.9877 263.022 56.9375H253.029C252.747 55.0317 252.002 53.4988 250.792 52.3388C249.599 51.1622 248.033 50.5739 246.094 50.5739C244.453 50.5739 243.02 51.0213 241.793 51.9162C240.584 52.7945 239.639 54.0788 238.96 55.7692C238.28 57.4595 237.94 59.5062 237.94 61.9091C237.94 64.3452 238.272 66.4167 238.935 68.1236C239.614 69.8305 240.567 71.1314 241.793 72.0263C243.02 72.9212 244.453 73.3686 246.094 73.3686C247.304 73.3686 248.389 73.12 249.35 72.6229C250.328 72.1257 251.132 71.4048 251.761 70.4602C252.408 69.4991 252.83 68.3473 253.029 67.005H263.022C262.856 69.9216 262.061 72.4903 260.636 74.7109C259.227 76.915 257.28 78.6385 254.794 79.8814C252.308 81.1243 249.367 81.7457 245.969 81.7457ZM290.111 42.8182V50.7727H267.117V42.8182H290.111ZM272.338 33.6705H282.927V69.267C282.927 70.2448 283.076 71.0071 283.374 71.554C283.673 72.0843 284.087 72.4571 284.617 72.6726C285.164 72.888 285.794 72.9957 286.507 72.9957C287.004 72.9957 287.501 72.9543 287.998 72.8714C288.495 72.772 288.876 72.6974 289.142 72.6477L290.807 80.5277C290.277 80.6934 289.531 80.884 288.57 81.0994C287.609 81.3314 286.44 81.4723 285.065 81.522C282.513 81.6214 280.276 81.2817 278.353 80.5028C276.447 79.724 274.964 78.5142 273.904 76.8736C272.843 75.233 272.321 73.1615 272.338 70.6591V33.6705Z" fill="#5E5F61"/>
<path d="M340.61 30.0909V81H331.313L309.165 48.9581H308.792V81H298.028V30.0909H307.474L329.449 62.108H329.896V30.0909H340.61ZM391.338 81L380.948 42.8182H391.661L397.578 68.4716H397.926L404.09 42.8182H414.605L420.87 68.3224H421.193L427.009 42.8182H437.698L427.333 81H416.122L409.559 56.9872H409.087L402.524 81H391.338Z" fill="#7EB6A1"/>
</svg>
